<svg width="25" height="24" viewBox="0 0 25 24" fill="none" xmlns="http://www.w3.org/2000/svg"><g clip-path="url(#clip0_2883_979)"><path d="M17.0893 23.083C23.2116 20.547 26.1189 13.5282 23.5829 7.40586C21.047 1.28356 14.0281 -1.62375 7.90583 0.912185C1.78354 3.44812 -1.12378 10.467 1.41216 16.5893C3.94809 22.7116 10.967 25.6189 17.0893 23.083Z" fill="white"></path><path d="M12.4987 0V24H12.1002V23.9925C5.65843 23.7819 0.5 18.4932 0.5 11.9987C0.5 5.50433 5.65843 0.218068 12.1002 0.00751958V0H12.4987Z" fill="#249F58"></path><path d="M14.5767 13.0809L15.86 14.838V12.6648L17.9003 11.9981L15.86 11.3339V9.1582L14.5767 10.9153L12.4988 10.2385L13.7846 11.9981L12.4988 13.7577L14.5767 13.0809Z" fill="#F93939"></path><path d="M10.9522 15.7463C8.88184 14.0895 8.54847 11.0691 10.2053 8.99875C11.8621 6.92836 14.8825 6.59499 16.9529 8.25181C17.2286 8.47238 17.4792 8.72304 17.6998 8.99875C16.043 6.12878 12.3734 5.14622 9.50345 6.80304C6.63348 8.45985 5.65092 12.1294 7.30774 14.9994C8.96455 17.8694 12.6341 18.8519 15.5041 17.1951C16.4165 16.6687 17.1734 15.9118 17.6998 14.9994C16.043 17.0698 13.0226 17.4031 10.9522 15.7463Z" fill="#F93939"></path></g><defs><clipPath id="clip0_2883_979"><rect x="0.5" width="24" height="24" rx="12" fill="white"></rect></clipPath></defs></svg>