<svg width="19" height="17" viewBox="0 0 19 17" fill="none" xmlns="http://www.w3.org/2000/svg"><path fill-rule="evenodd" clip-rule="evenodd" d="M5.50055 4C5.50055 6.20914 7.29141 8 9.50055 8C11.7097 8 13.5005 6.20914 13.5005 4C13.5005 1.79086 11.7097 0 9.50055 0C7.29141 0 5.50055 1.79086 5.50055 4ZM11.5005 4C11.5005 5.10457 10.6051 6 9.50055 6C8.39598 6 7.50055 5.10457 7.50055 4C7.50055 2.89543 8.39598 2 9.50055 2C10.6051 2 11.5005 2.89543 11.5005 4ZM10.5005 13C10.5005 15.2091 12.2914 17 14.5005 17C16.7097 17 18.5005 15.2091 18.5005 13C18.5005 10.7909 16.7097 9 14.5005 9C12.2914 9 10.5005 10.7909 10.5005 13ZM16.5005 13C16.5005 14.1046 15.6051 15 14.5005 15C13.396 15 12.5005 14.1046 12.5005 13C12.5005 11.8954 13.396 11 14.5005 11C15.6051 11 16.5005 11.8954 16.5005 13ZM4.50055 17C2.29141 17 0.500549 15.2091 0.500549 13C0.500549 10.7909 2.29141 9 4.50055 9C6.70969 9 8.50055 10.7909 8.50055 13C8.50055 15.2091 6.70969 17 4.50055 17ZM4.50055 15C5.60512 15 6.50055 14.1046 6.50055 13C6.50055 11.8954 5.60512 11 4.50055 11C3.39598 11 2.50055 11.8954 2.50055 13C2.50055 14.1046 3.39598 15 4.50055 15Z" fill="currentColor"></path></svg>