<svg width="41" height="40" viewBox="0 0 41 40" fill="none" xmlns="http://www.w3.org/2000/svg"><path fill-rule="evenodd" clip-rule="evenodd" d="M6.33301 4C5.22844 4 4.33301 4.89543 4.33301 6C4.33301 7.10457 5.22844 8 6.33301 8L34.333 8C37.6467 8 40.333 10.6863 40.333 14V34C40.333 37.3137 37.6467 40 34.333 40H6.33301C3.0193 40 0.333008 37.3137 0.333008 34V6C0.333008 2.68629 3.0193 0 6.33301 0H30.333C31.4376 0 32.333 0.89543 32.333 2C32.333 3.10457 31.4376 4 30.333 4H6.33301ZM4.33301 11.6586V34C4.33301 35.1046 5.22844 36 6.33301 36H34.333C35.4376 36 36.333 35.1046 36.333 34V14C36.333 12.8954 35.4376 12 34.333 12L6.33301 12C5.63174 12 4.95857 11.8797 4.33301 11.6586ZM26.333 24C26.333 22.3431 27.6762 21 29.333 21C30.9899 21 32.333 22.3431 32.333 24C32.333 25.6569 30.9899 27 29.333 27C27.6762 27 26.333 25.6569 26.333 24Z" fill="currentColor"></path></svg>