<svg width="48" height="49" viewBox="0 0 48 49" fill="none" xmlns="http://www.w3.org/2000/svg"><path fill-rule="evenodd" clip-rule="evenodd" d="M10 6.5H18C19.1046 6.5 20 7.39543 20 8.5V14.4988C20 15.6034 19.1046 16.4988 18 16.4988H10C8.89543 16.4988 8 15.6034 8 14.4988V8.5C8 7.39543 8.89543 6.5 10 6.5ZM32 32.4988C32 29.1788 34.68 26.4988 38 26.4988C41.32 26.4988 44 29.1788 44 32.4988C44 35.8188 41.32 38.4988 38 38.4988C34.68 38.4988 32 35.8188 32 32.4988ZM34 10.4988H30C28.8954 10.4988 28 11.3942 28 12.4988C28 13.6034 28.8954 14.4988 30 14.4988H34V19.7988L28.2009 27.0063C27.4416 27.95 26.2956 28.4988 25.0844 28.4988H20V22.4988C20 20.2896 18.2091 18.4988 16 18.4988H12C7.58 18.4988 4 22.0788 4 26.4988V28.4988C4 30.7079 5.79086 32.4988 8 32.4988C8 35.8188 10.68 38.4988 14 38.4988C17.32 38.4988 20 35.8188 20 32.4988H27.0722C28.2903 32.4988 29.4421 31.9437 30.201 30.9908L34.4367 25.6727C36.076 23.6437 36.2579 23.3213 36.6831 22.5679C36.9227 22.1432 37.2396 21.5816 37.9383 20.5002C37.9792 20.2705 38 20.0364 38 19.8005V17.5L42.5528 19.7764C43.2177 20.1088 44 19.6253 44 18.882V14.118C44 13.3747 43.2177 12.8912 42.5528 13.2236L38 15.5V14.4988C38 12.2988 36.22 10.4988 34 10.4988ZM38 34.5C36.8954 34.5 36 33.6046 36 32.5C36 31.3954 36.8954 30.5 38 30.5C39.1046 30.5 40 31.3954 40 32.5C40 33.6046 39.1046 34.5 38 34.5ZM16 32.5C16 33.6046 15.1046 34.5 14 34.5C12.8954 34.5 12 33.6046 12 32.5H16ZM14 22.5H12C9.79086 22.5 8 24.2909 8 26.5C8 27.6046 8.89543 28.5 10 28.5H16V24.5C16 23.3954 15.1046 22.5 14 22.5Z" fill="currentColor"></path></svg>