<svg width="28" height="36" viewBox="0 0 28 36" fill="none" xmlns="http://www.w3.org/2000/svg"><path fill-rule="evenodd" clip-rule="evenodd" d="M20 21C24.0331 21 27.3227 24.1835 27.4931 28.1747L27.5 28.5V33C27.5 34.5815 26.2762 35.8772 24.7239 35.9918L24.5 36H3.5C1.91846 36 0.622752 34.7762 0.508229 33.2239L0.5 33V28.5C0.5 24.4669 3.68346 21.1773 7.67467 21.0069L8 21H20ZM20 24H8C5.60348 24 3.64451 25.8734 3.50764 28.2356L3.5 28.5V33H24.5V28.5C24.5 26.1035 22.6266 24.1445 20.2644 24.0076L20 24ZM14 0C18.9706 0 23 4.02944 23 9C23 13.9706 18.9706 18 14 18C9.02944 18 5 13.9706 5 9C5 4.02944 9.02944 0 14 0ZM14 3C10.6863 3 8 5.68629 8 9C8 12.3137 10.6863 15 14 15C17.3137 15 20 12.3137 20 9C20 5.68629 17.3137 3 14 3Z" fill="currentColor"></path></svg>