<svg width="48" height="49" viewBox="0 0 48 49" fill="none" xmlns="http://www.w3.org/2000/svg"><path fill-rule="evenodd" clip-rule="evenodd" d="M19 8.5C15.6863 8.5 13 11.1863 13 14.5C13 17.8137 15.6863 20.5 19 20.5C22.3137 20.5 25 17.8137 25 14.5C25 11.1863 22.3137 8.5 19 8.5ZM9 14.5C9 8.97715 13.4772 4.5 19 4.5C24.5228 4.5 29 8.97715 29 14.5C29 20.0228 24.5228 24.5 19 24.5C13.4772 24.5 9 20.0228 9 14.5ZM29.1461 6.33109C29.5606 5.30722 30.7266 4.81319 31.7504 5.22764C35.4115 6.70962 38 10.3001 38 14.5C38 18.6999 35.4115 22.2904 31.7504 23.7724C30.7266 24.1868 29.5606 23.6928 29.1461 22.6689C28.7317 21.645 29.2257 20.4791 30.2496 20.0646C32.4521 19.173 34 17.0149 34 14.5C34 11.9851 32.4521 9.82697 30.2496 8.93539C29.2257 8.52094 28.7317 7.35495 29.1461 6.33109ZM15.929 28.5H22.071C23.8746 28.5 25.3294 28.5 26.5134 28.5808C27.7309 28.6638 28.8074 28.839 29.8268 29.2612C32.2771 30.2761 34.2239 32.2229 35.2388 34.6732C35.661 35.6926 35.8362 36.7691 35.9192 37.9866C36 39.1706 36 40.6254 36 42.429V42.5C36 43.6046 35.1046 44.5 34 44.5C32.8954 44.5 32 43.6046 32 42.5C32 40.6089 31.9989 39.2907 31.9285 38.2589C31.8593 37.2451 31.73 36.6547 31.5433 36.2039C30.9343 34.7337 29.7663 33.5657 28.2961 32.9567C27.8453 32.77 27.2549 32.6407 26.2411 32.5715C25.2093 32.5011 23.8911 32.5 22 32.5H16C14.1089 32.5 12.7907 32.5011 11.7589 32.5715C10.7451 32.6407 10.1547 32.77 9.7039 32.9567C8.23373 33.5657 7.06569 34.7337 6.45672 36.2039C6.27001 36.6547 6.14065 37.2451 6.07148 38.2589C6.00108 39.2907 6 40.6089 6 42.5C6 43.6046 5.10457 44.5 4 44.5C2.89543 44.5 2 43.6046 2 42.5L2 42.429C1.99999 40.6255 1.99998 39.1706 2.08076 37.9866C2.16383 36.7691 2.33896 35.6926 2.76121 34.6732C3.77615 32.2229 5.72289 30.2761 8.17317 29.2612C9.19257 28.839 10.2691 28.6638 11.4866 28.5808C12.6706 28.5 14.1254 28.5 15.929 28.5ZM36.0631 30.2535C36.3384 29.1838 37.4288 28.5398 38.4985 28.8152C42.8112 29.9252 46 33.8377 46 38.5V42.5C46 43.6046 45.1046 44.5 44 44.5C42.8954 44.5 42 43.6046 42 42.5V38.5C42 35.707 40.0898 33.3551 37.5015 32.6889C36.4318 32.4136 35.7878 31.3232 36.0631 30.2535Z" fill="currentColor"></path></svg>