<svg width="36" height="44" viewBox="0 0 36 44" fill="none" xmlns="http://www.w3.org/2000/svg"><path fill-rule="evenodd" clip-rule="evenodd" d="M2 0C3.10457 0 4 0.89543 4 2V2.79361C5.45521 2.34538 7.41649 2 10 2C13.3869 2 16.1934 3.12297 18.6314 4.09847C18.6686 4.11336 18.7057 4.12822 18.7428 4.14305C21.279 5.15752 23.4386 6 26 6C28.7746 6 30.519 5.53834 31.5072 5.14305C32.0031 4.94469 32.3178 4.75943 32.4844 4.6484C32.5673 4.5931 32.6148 4.55538 32.6305 4.54239C33.202 4.0053 34.0373 3.85065 34.7654 4.15224C35.5127 4.4618 36 5.19108 36 6V28C36 28.5304 35.7893 29.0391 35.4142 29.4142C35.3745 29.453 35.4121 29.4163 35.4121 29.4163L35.41 29.4184L35.4055 29.4229L35.396 29.4322L35.3745 29.453C35.3591 29.4677 35.3414 29.4842 35.3214 29.5023C35.2815 29.5386 35.2324 29.5815 35.1738 29.6298C35.0563 29.7265 34.9008 29.8449 34.7032 29.9766C34.3072 30.2406 33.7469 30.5553 32.9928 30.857C31.481 31.4617 29.2254 32 26 32C22.6131 32 19.8066 30.877 17.3686 29.9015L17.2572 29.857C14.721 28.8425 12.5614 28 10 28C7.22543 28 5.48103 28.4617 4.49278 28.857C4.30245 28.9331 4.13881 29.0073 4 29.0761L4 42C4 43.1046 3.10457 44 2 44C0.895432 44 1.66893e-06 43.1046 1.54972e-06 42L9.53674e-07 28.002V27.998L1.19209e-07 6.00084L0 2C0 0.895431 0.89543 0 2 0ZM4 7.07611L4 24.7936C5.45521 24.3454 7.41649 24 10 24C13.3869 24 16.1934 25.123 18.6314 26.0985L18.7428 26.143C21.279 27.1575 23.4386 28 26 28C28.7746 28 30.519 27.5383 31.5072 27.143C31.6975 27.0669 31.8612 26.9927 32 26.9239V9.20639C30.5448 9.65462 28.5835 10 26 10C22.6131 10 19.8066 8.87703 17.3686 7.90153C17.3314 7.88664 17.2943 7.87178 17.2572 7.85695C14.721 6.84248 12.5614 6 10 6C7.22543 6 5.48103 6.46166 4.49278 6.85695C4.30245 6.93309 4.13881 7.00729 4 7.07611Z" fill="currentColor"></path></svg>