<svg width="24" height="24" viewBox="0 0 24 24" fill="none" xmlns="http://www.w3.org/2000/svg"><path fill-rule="evenodd" clip-rule="evenodd" d="M4 3C4.55228 3 5 3.44772 5 4V9C5 9.55228 5.44772 10 6 10C6.55228 10 7 9.55228 7 9V4C7 3.44772 7.44772 3 8 3C8.55228 3 9 3.44772 9 4V9C9 9.55228 9.44772 10 10 10C10.5523 10 11 9.55228 11 9V4C11 3.44772 11.4477 3 12 3C12.5523 3 13 3.44772 13 4V8.52167C13 10.6534 11.7956 12.6022 9.88889 13.5556C9.34412 13.8279 9 14.3847 9 14.9938V20C9 20.5523 8.55228 21 8 21C7.44772 21 7 20.5523 7 20V14.9938C7 14.3847 6.65588 13.8279 6.11111 13.5556C4.20442 12.6022 3 10.6534 3 8.52167V4C3 3.44772 3.44772 3 4 3ZM16 8C16 5.23858 18.2386 3 21 3V20C21 20.5523 20.5523 21 20 21C19.4477 21 19 20.5523 19 20V15.7749C19 14.4097 17.6626 13.4458 16.3675 13.8775L16 14V8Z" fill="currentColor"></path></svg>