<svg width="15" height="16" viewBox="0 0 15 16" fill="none" xmlns="http://www.w3.org/2000/svg"><path fill-rule="evenodd" clip-rule="evenodd" d="M1.53658 7.33268H4.20002C4.34949 5.49056 4.96603 3.7223 5.98376 2.19257C3.6125 2.81 1.81196 4.84151 1.53658 7.33268ZM7.49996 2.36655C6.38684 3.80064 5.70582 5.5239 5.53835 7.33268H9.46156C9.2941 5.5239 8.61308 3.80064 7.49996 2.36655ZM9.46156 8.66602C9.2941 10.4748 8.61308 12.1981 7.49996 13.6321C6.38684 12.1981 5.70582 10.4748 5.53835 8.66602H9.46156ZM4.20002 8.66602H1.53658C1.81196 11.1572 3.6125 13.1887 5.98376 13.8061C4.96603 12.2764 4.34949 10.5081 4.20002 8.66602ZM9.01615 13.8061C10.0339 12.2764 10.6504 10.5081 10.7999 8.66602H13.4633C13.188 11.1572 11.3874 13.1887 9.01615 13.8061ZM13.4633 7.33268H10.7999C10.6504 5.49056 10.0339 3.7223 9.01615 2.19257C11.3874 2.81 13.188 4.84151 13.4633 7.33268ZM0.166626 7.99935C0.166626 3.94926 3.44987 0.666016 7.49996 0.666016C11.55 0.666016 14.8333 3.94926 14.8333 7.99935C14.8333 12.0494 11.55 15.3327 7.49996 15.3327C3.44987 15.3327 0.166626 12.0494 0.166626 7.99935Z" fill="currentColor"></path></svg>