<svg width="24" height="24" viewBox="0 0 24 24" fill="none" xmlns="http://www.w3.org/2000/svg"><g id="Brands / Instagram"><path id="Icon" fill-rule="evenodd" clip-rule="evenodd" d="M7.05242 0.0737921C8.33148 0.0140556 8.73909 0 11.9965 0C15.2539 0 15.6615 0.0140556 16.937 0.0702782C18.2161 0.130015 19.0876 0.333821 19.8501 0.62899C20.6407 0.938214 21.3083 1.34583 21.976 2.01347C22.6436 2.6776 23.0548 3.34876 23.3605 4.13236C23.6592 4.89839 23.8594 5.76984 23.9192 7.04539C23.9789 8.32445 23.993 8.73206 23.993 11.9895C23.993 15.2469 23.9789 15.6545 23.9192 16.9335C23.8594 18.2126 23.6556 19.084 23.3605 19.8466C23.0512 20.6372 22.6436 21.3048 21.976 21.9725C21.3119 22.6401 20.6407 23.0512 19.8571 23.357C19.0911 23.6556 18.2196 23.8559 16.9441 23.9157C15.665 23.9754 15.2574 23.9895 12 23.9895C8.74261 23.9895 8.33499 23.9754 7.05593 23.9157C5.77687 23.8559 4.90542 23.6521 4.1429 23.357C3.35227 23.0477 2.68463 22.6401 2.01698 21.9725C1.34934 21.3083 0.938214 20.6372 0.632504 19.8536C0.333821 19.0876 0.133529 18.2161 0.0737921 16.9406C0.0140556 15.6615 0 15.2539 0 11.9965C0 8.73909 0.0140556 8.33148 0.0737921 7.05242C0.133529 5.77335 0.337335 4.9019 0.632504 4.13939C0.941728 3.34876 1.34934 2.68111 2.01698 2.01347C2.68111 1.34583 3.35227 0.9347 4.13939 0.632504C4.90542 0.333821 5.77687 0.133529 7.05242 0.0737921ZM16.8422 2.23133C15.5772 2.1716 15.1977 2.16105 11.9965 2.16105C8.79531 2.16105 8.41581 2.1716 7.15081 2.23133C5.98067 2.28755 5.34466 2.48082 4.92299 2.64597C4.36428 2.86384 3.96369 3.12387 3.54553 3.54202C3.12738 3.96018 2.86735 4.36076 2.64949 4.91947C2.48433 5.34114 2.28755 5.97716 2.23485 7.14729C2.17511 8.4123 2.16457 8.7918 2.16457 11.993C2.16457 15.1941 2.17862 15.5736 2.23485 16.8387C2.29107 18.0088 2.48433 18.6448 2.64949 19.0665C2.86735 19.6252 3.12738 20.0258 3.54553 20.4439C3.96369 20.8621 4.36428 21.1221 4.92299 21.34C5.34466 21.5051 5.98067 21.7019 7.15081 21.7546C8.41581 21.8143 8.79531 21.8249 11.9965 21.8249C15.1977 21.8249 15.5772 21.8108 16.8422 21.7546C18.0123 21.6984 18.6483 21.5051 19.07 21.34C19.6287 21.1221 20.0293 20.8621 20.4474 20.4439C20.8656 20.0258 21.1256 19.6252 21.3435 19.0665C21.5086 18.6448 21.7054 18.0088 21.7581 16.8387C21.8179 15.5736 21.8284 15.1941 21.8284 11.993C21.8284 8.7918 21.8143 8.4123 21.7581 7.14729C21.7019 5.97716 21.5086 5.34114 21.3435 4.91947C21.1256 4.36076 20.8656 3.96018 20.4474 3.54202C20.0293 3.12387 19.6287 2.86384 19.07 2.64597C18.6483 2.48082 18.0123 2.28404 16.8422 2.23133ZM5.8366 11.993C5.8366 8.59151 8.59502 5.83309 11.9965 5.83309C15.398 5.83309 18.1564 8.59151 18.1564 11.993C18.1564 15.3944 15.398 18.1529 11.9965 18.1529C8.59502 18.1529 5.8366 15.3944 5.8366 11.993ZM7.99766 11.993C7.99766 14.2032 9.78975 15.9918 11.9965 15.9918C14.2032 15.9918 15.9953 14.2032 15.9953 11.993C15.9953 9.78272 14.2032 7.99414 11.9965 7.99414C9.78975 7.99414 7.99766 9.78272 7.99766 11.993ZM19.8395 5.59063C19.8395 6.38631 19.1945 7.03133 18.3988 7.03133C17.6032 7.03133 16.9581 6.38631 16.9581 5.59063C16.9581 4.79495 17.6032 4.14993 18.3988 4.14993C19.1945 4.14993 19.8395 4.79495 19.8395 5.59063Z" fill="currentColor"></path></g></svg>