<svg width="16" height="16" viewBox="0 0 16 16" fill="none" xmlns="http://www.w3.org/2000/svg"><path d="M15.4493 14.0501L12.6368 7.23763C12.5848 7.11183 12.4967 7.00427 12.3836 6.92858C12.2704 6.8529 12.1374 6.8125 12.0013 6.8125C11.8652 6.8125 11.7321 6.8529 11.619 6.92858C11.5059 7.00427 11.4178 7.11183 11.3658 7.23763L8.55332 14.0501C8.51835 14.1337 8.50023 14.2233 8.5 14.3139C8.49977 14.4044 8.51744 14.4942 8.55199 14.5779C8.58655 14.6616 8.6373 14.7377 8.70134 14.8017C8.76538 14.8658 8.84144 14.9165 8.92515 14.9511C9.00887 14.9856 9.09859 15.0033 9.18916 15.0031C9.27972 15.0029 9.36936 14.9848 9.45291 14.9498C9.53645 14.9149 9.61227 14.8637 9.676 14.7994C9.73973 14.735 9.79011 14.6587 9.82426 14.5748L10.3971 13.1876H13.6055L14.1783 14.5748C14.2302 14.7007 14.3184 14.8083 14.4315 14.884C14.5447 14.9597 14.6778 15.0002 14.8139 15.0001C14.9269 15.0001 15.0381 14.9722 15.1378 14.9189C15.2374 14.8656 15.3223 14.7886 15.3851 14.6947C15.4479 14.6008 15.4866 14.4928 15.4977 14.3804C15.5088 14.268 15.4924 14.1545 15.4493 14.0501ZM10.9649 11.8126L12.0014 9.3017L13.038 11.8126H10.9649Z" fill="currentColor"></path><path d="M5.27891 12.2344C4.61355 12.2344 4.04449 12.1695 3.57173 12.0399C3.10772 11.9102 2.72689 11.7343 2.42922 11.512C2.13156 11.299 1.91269 11.0444 1.77262 10.748C1.63254 10.4609 1.5625 10.1507 1.5625 9.8173C1.5625 9.23387 1.76386 8.706 2.16658 8.2337C2.5693 7.75213 3.19965 7.30762 4.05762 6.90014C3.80373 6.89088 3.55859 6.83531 3.32221 6.73344C3.08583 6.63158 2.87572 6.49266 2.69187 6.31671C2.51677 6.13149 2.3767 5.91386 2.27164 5.66382C2.16658 5.40452 2.11405 5.1128 2.11405 4.78867C2.11405 4.37193 2.18409 3.99224 2.32417 3.64959C2.473 3.30694 2.68749 3.01059 2.96765 2.76055C3.2478 2.51051 3.59361 2.31603 4.00509 2.17712C4.42532 2.03821 4.91121 1.96875 5.46276 1.96875C5.62035 1.96875 5.77356 1.97801 5.92239 1.99653C5.79982 1.97801 6.07122 2.01505 5.92239 1.99653L6.03447 2.01403C6.41531 2.07346 6.67627 2.42983 6.61795 2.81085L6.60759 2.87852C6.55023 3.2533 6.17397 3.52504 5.8042 3.44122C5.69914 3.4227 5.93552 3.45974 5.8042 3.44122C5.67288 3.41344 5.53718 3.39955 5.3971 3.39955C4.92434 3.39955 4.54789 3.53383 4.26773 3.80239C3.99633 4.0617 3.86063 4.38583 3.86063 4.77478C3.86063 5.08965 3.93067 5.34895 4.07075 5.55269C4.21083 5.74717 4.3903 5.89071 4.60917 5.98332C4.82804 6.06667 5.0688 6.09445 5.33144 6.06667C5.60284 6.03888 5.86548 5.96017 6.11937 5.83051C6.47903 5.65148 6.92104 5.81027 7.07702 6.18051C7.21835 6.51595 7.07739 6.90364 6.75362 7.06999L5.0294 7.95587C4.44283 8.26148 4.01384 8.53931 3.74244 8.78935C3.47105 9.04865 3.33535 9.33111 3.33535 9.63671C3.33535 9.80341 3.37037 9.95621 3.4404 10.0951C3.51044 10.2433 3.62863 10.3683 3.79497 10.4702C3.96131 10.5813 4.18018 10.6647 4.45158 10.7202C4.73174 10.7758 5.07317 10.8036 5.47589 10.8036C5.72978 10.8036 5.97492 10.7943 6.2113 10.7758C6.02745 10.7943 6.44768 10.7573 6.2113 10.7758C6.29818 10.7648 6.48162 10.7443 6.68278 10.7212C7.08874 10.6747 7.47292 10.9826 7.50374 11.3901C7.53035 11.7419 7.28241 12.0491 6.93203 12.0909C6.60044 12.1304 6.24196 12.1722 6.10624 12.1927C5.88737 12.2205 6.37764 12.1742 6.10624 12.1927C5.83484 12.2205 5.55906 12.2344 5.27891 12.2344Z" fill="currentColor"></path></svg>