<svg width="25" height="24" viewBox="0 0 25 24" fill="none" xmlns="http://www.w3.org/2000/svg"><g clip-path="url(#clip0_2883_1466)"><path d="M17.0893 23.083C23.2116 20.547 26.1189 13.5282 23.5829 7.40586C21.047 1.28356 14.0281 -1.62375 7.90583 0.912185C1.78354 3.44812 -1.12378 10.467 1.41216 16.5893C3.94809 22.7116 10.967 25.6189 17.0893 23.083Z" fill="#F93939"></path><path d="M8.99712 17.3905L10.3356 13.2723L6.83398 10.7282H11.1628L12.5012 6.60742L13.8397 10.7282H18.1685L14.6669 13.2723L16.0054 17.3905L12.5037 14.8464L9.00213 17.3905H8.99712ZM13.2457 14.3025L14.331 15.092L13.9149 13.8137L13.2432 14.3025H13.2457ZM11.08 13.8137L10.664 15.092L11.7493 14.3025L11.0775 13.8137H11.08ZM11.3658 12.9364L12.4987 13.7585L13.6317 12.9364L13.2006 11.6054H11.7994L11.3683 12.9364H11.3658ZM9.53351 11.6054L10.6188 12.395L10.8745 11.6054H9.53351ZM14.123 11.6054L14.3786 12.3925L15.464 11.6054H14.123ZM12.0827 10.7282H12.9148L12.4987 9.44982L12.0827 10.7282Z" fill="#20661B"></path></g><defs><clipPath id="clip0_2883_1466"><rect width="24" height="24" fill="white" transform="translate(0.5)"></rect></clipPath></defs></svg>