<svg xmlns="http://www.w3.org/2000/svg" width="67" height="12" viewBox="0 0 67 12" fill="none">
<path opacity="0.35" d="M45.3385 0.579102H62.0052C63.2018 0.579102 64.1719 1.54915 64.1719 2.74577V8.74577C64.1719 9.94239 63.2018 10.9124 62.0052 10.9124H45.3385C44.1419 10.9124 43.1719 9.94239 43.1719 8.74577V2.74577C43.1719 1.54915 44.1419 0.579102 45.3385 0.579102Z" stroke="black"/>
<path opacity="0.4" d="M65.6719 3.74609V7.74609C66.4766 7.40732 66.9999 6.61923 66.9999 5.74609C66.9999 4.87296 66.4766 4.08487 65.6719 3.74609" fill="black"/>
<path d="M44.6719 3.41244C44.6719 2.67606 45.2688 2.0791 46.0052 2.0791H61.3385C62.0749 2.0791 62.6719 2.67606 62.6719 3.41243V8.0791C62.6719 8.81548 62.0749 9.41244 61.3385 9.41244H46.0052C45.2688 9.41244 44.6719 8.81548 44.6719 8.0791V3.41244Z" fill="black"/>
<path fill-rule="evenodd" clip-rule="evenodd" d="M29.996 2.3535C32.2119 2.3536 34.343 3.20503 35.949 4.73183C36.0699 4.84971 36.2632 4.84822 36.3823 4.7285L37.5383 3.56183C37.5986 3.50111 37.6322 3.41886 37.6317 3.33328C37.6312 3.2477 37.5967 3.16585 37.5356 3.10583C33.3205 -0.933715 26.6707 -0.933715 22.4556 3.10583C22.3946 3.1658 22.3599 3.24763 22.3594 3.33321C22.3588 3.41879 22.3924 3.50107 22.4526 3.56183L23.609 4.7285C23.728 4.8484 23.9215 4.84989 24.0423 4.73183C25.6485 3.20493 27.7799 2.35349 29.996 2.3535ZM29.996 6.14917C31.2135 6.14909 32.3875 6.60162 33.29 7.41883C33.412 7.53481 33.6043 7.5323 33.7233 7.41317L34.878 6.2465C34.9388 6.1853 34.9725 6.10229 34.9717 6.01602C34.9708 5.92976 34.9354 5.84744 34.8733 5.7875C32.1251 3.23112 27.8692 3.23112 25.121 5.7875C25.0589 5.84744 25.0235 5.9298 25.0227 6.01609C25.0219 6.10238 25.0557 6.18539 25.1166 6.2465L26.271 7.41317C26.39 7.5323 26.5823 7.53481 26.7043 7.41883C27.6062 6.60216 28.7793 6.14967 29.996 6.14917ZM32.309 8.70298C32.3107 8.78949 32.2767 8.87289 32.215 8.9335L30.2176 10.9492C30.1591 11.0084 30.0793 11.0417 29.996 11.0417C29.9127 11.0417 29.8329 11.0084 29.7743 10.9492L27.7766 8.9335C27.7149 8.87285 27.681 8.78942 27.6828 8.70291C27.6846 8.61641 27.7221 8.53449 27.7863 8.4765C29.0619 7.39762 30.9301 7.39762 32.2056 8.4765C32.2698 8.53453 32.3072 8.61648 32.309 8.70298Z" fill="black"/>
<path fill-rule="evenodd" clip-rule="evenodd" d="M16.3359 0.412109H15.3359C14.7837 0.412109 14.3359 0.859825 14.3359 1.41211V10.0788C14.3359 10.6311 14.7837 11.0788 15.3359 11.0788H16.3359C16.8882 11.0788 17.3359 10.6311 17.3359 10.0788V1.41211C17.3359 0.859825 16.8882 0.412109 16.3359 0.412109ZM10.6693 2.74544H11.6693C12.2216 2.74544 12.6693 3.19316 12.6693 3.74544V10.0788C12.6693 10.6311 12.2216 11.0788 11.6693 11.0788H10.6693C10.117 11.0788 9.66927 10.6311 9.66927 10.0788V3.74544C9.66927 3.19316 10.117 2.74544 10.6693 2.74544ZM7.0026 5.07878H6.0026C5.45032 5.07878 5.0026 5.52649 5.0026 6.07878V10.0788C5.0026 10.6311 5.45032 11.0788 6.0026 11.0788H7.0026C7.55489 11.0788 8.0026 10.6311 8.0026 10.0788V6.07878C8.0026 5.52649 7.55489 5.07878 7.0026 5.07878ZM2.33594 7.07878H1.33594C0.783653 7.07878 0.335938 7.52649 0.335938 8.07878V10.0788C0.335938 10.6311 0.783653 11.0788 1.33594 11.0788H2.33594C2.88822 11.0788 3.33594 10.6311 3.33594 10.0788V8.07878C3.33594 7.52649 2.88822 7.07878 2.33594 7.07878Z" fill="black"/>
</svg>