<svg width="24" height="24" viewBox="0 0 24 24" fill="none" xmlns="http://www.w3.org/2000/svg"><path fill-rule="evenodd" clip-rule="evenodd" d="M4.19021 8.77599L4.87434 4.6712C5.03507 3.70683 5.86945 3 6.84713 3H17.1529C18.1306 3 18.9649 3.70683 19.1257 4.6712L19.8098 8.77599L20.2929 8.29289C20.4804 8.10536 20.7348 8 21 8H23C23.5523 8 24 8.44772 24 9C24 9.55228 23.5523 10 23 10H21.4142L20.7076 10.7066C20.895 11.0982 21 11.5369 21 12V19C21 19.5523 20.5523 20 20 20C19.4477 20 19 19.5523 19 19V18H5V19C5 19.5523 4.55228 20 4 20C3.44772 20 3 19.5523 3 19V12C3 11.5369 3.10495 11.0982 3.29237 10.7066L2.58579 10H1C0.447715 10 0 9.55228 0 9C0 8.44772 0.447715 8 1 8H3C3.26522 8 3.51957 8.10536 3.70711 8.29289L4.19021 8.77599ZM6.18046 9H17.8195L17.1529 5H6.84713L6.18046 9ZM17.5 15C16.6716 15 16 14.3284 16 13.5C16 12.6716 16.6716 12 17.5 12C18.3284 12 19 12.6716 19 13.5C19 14.3284 18.3284 15 17.5 15ZM6.5 15C5.67157 15 5 14.3284 5 13.5C5 12.6716 5.67157 12 6.5 12C7.32843 12 8 12.6716 8 13.5C8 14.3284 7.32843 15 6.5 15Z" fill="currentColor"></path></svg>