<svg width="50" height="51" viewBox="0 0 40 41" fill="none" xmlns="http://www.w3.org/2000/svg"><path fill-rule="evenodd" clip-rule="evenodd" d="M31 4.5C28.2386 4.5 26 6.73858 26 9.5C26 12.2614 28.2386 14.5 31 14.5C33.7614 14.5 36 12.2614 36 9.5C36 6.73858 33.7614 4.5 31 4.5ZM25.3427 2.5C26.8884 1.2492 28.8567 0.5 31 0.5C35.9706 0.5 40 4.52944 40 9.5C40 14.4706 35.9706 18.5 31 18.5C28.8567 18.5 26.8884 17.7508 25.3427 16.5H7C3.13401 16.5 0 13.366 0 9.5C0 5.63401 3.13401 2.5 7 2.5H25.3427ZM22.5121 6.5H7C5.34315 6.5 4 7.84315 4 9.5C4 11.1569 5.34315 12.5 7 12.5H22.5121C22.1805 11.5617 22 10.5519 22 9.5C22 8.44809 22.1805 7.43834 22.5121 6.5ZM0 31.5C0 26.5294 4.02944 22.5 9 22.5C11.1433 22.5 13.1116 23.2492 14.6573 24.5H33C36.866 24.5 40 27.634 40 31.5C40 35.366 36.866 38.5 33 38.5H14.6573C13.1116 39.7508 11.1433 40.5 9 40.5C4.02944 40.5 0 36.4706 0 31.5ZM17.4879 34.5H33C34.6569 34.5 36 33.1569 36 31.5C36 29.8431 34.6569 28.5 33 28.5H17.4879C17.8195 29.4383 18 30.4481 18 31.5C18 32.5519 17.8195 33.5617 17.4879 34.5ZM9 26.5C6.23858 26.5 4 28.7386 4 31.5C4 34.2614 6.23858 36.5 9 36.5C11.7614 36.5 14 34.2614 14 31.5C14 28.7386 11.7614 26.5 9 26.5Z" fill="currentColor"></path></svg>