<svg width="25" height="24" viewBox="0 0 25 24" fill="none" xmlns="http://www.w3.org/2000/svg"><g clip-path="url(#clip0_3125_1303)"><path d="M23.8082 16.0215C22.1539 20.6711 17.7148 23.9973 12.4987 23.9973C11.1903 23.9973 9.93204 23.7867 8.75146 23.4007L19.8203 16.0215H23.8057H23.8082Z" fill="#1A47B8"></path><path d="M23.8082 7.97577H19.8229L8.75403 0.596554C9.9321 0.210548 11.1929 0 12.5013 0C17.7174 0 22.1564 3.32867 23.8107 7.97577H23.8082Z" fill="#F93939"></path><path d="M24.5 11.9979C24.5 13.4091 24.2569 14.7626 23.8082 16.0209H19.8228L8.75401 23.4001C5.97427 22.4877 3.6432 20.5878 2.17438 18.1163L11.3508 11.9979L2.17438 5.88197C3.6432 3.40803 5.97427 1.50808 8.75401 0.595703L19.8228 7.97492H23.8082C24.2544 9.2332 24.5 10.5867 24.5 11.9979Z" fill="white"></path><path d="M24.5 11.9984C24.5 12.8256 24.4173 13.6327 24.2569 14.4122H19.3365L6.97435 22.6537C5.46292 21.8666 4.13697 20.7688 3.08673 19.4428L14.2508 11.9984L3.08673 4.55657C4.13697 3.23061 5.46041 2.13025 6.97435 1.3457L19.3365 9.58717H24.2569C24.4173 10.3667 24.5 11.1738 24.5 12.001V11.9984Z" fill="#249F58"></path><path d="M14.2383 11.9994L3.08175 19.4362C2.75089 19.0176 2.4476 18.5765 2.17439 18.1178C2.17439 18.1178 2.17188 18.1128 2.16937 18.1103L11.3357 11.9994L2.17188 5.88845C2.17188 5.88845 2.17188 5.88344 2.17689 5.88093C2.4501 5.41973 2.75339 4.97858 3.08426 4.5625L14.2408 11.9994H14.2383Z" fill="#FFDA2C"></path><path d="M11.3508 11.9993L2.17436 18.1177C1.10909 16.3256 0.5 14.2351 0.5 11.9993C0.5 9.76347 1.11159 7.67303 2.17436 5.88086L11.3508 11.9993Z" fill="#151515"></path></g><defs><clipPath id="clip0_3125_1303"><rect width="24" height="24" fill="white" transform="translate(0.5)"></rect></clipPath></defs></svg>