<svg width="25" height="24" viewBox="0 0 25 24" fill="none" xmlns="http://www.w3.org/2000/svg"><g clip-path="url(#clip0_2883_1571)"><path d="M6.50063 1.60742V22.3941C2.91379 20.3186 0.5 16.4411 0.5 11.9995C0.5 7.55792 2.91379 3.68032 6.50063 1.60742Z" fill="#249F58"></path><path d="M18.4994 1.60668V22.3933C16.7348 23.4135 14.6844 24 12.4987 24C10.313 24 8.26521 23.416 6.49811 22.3933V1.60668C8.26521 0.584021 10.313 0 12.4987 0C14.6844 0 16.7323 0.584021 18.4994 1.60668Z" fill="#FFDA2C"></path><path d="M24.5 11.9995C24.5 16.4411 22.0862 20.3186 18.4994 22.3941V1.60742C22.0862 3.68283 24.5 7.56043 24.5 12.002V11.9995Z" fill="#F93939"></path><path d="M13.9525 12.4716L16.3037 10.7622H13.3986L12.4988 8L11.6014 10.7622H8.69635L11.0475 12.4716L10.1476 15.2338L12.4988 13.5269L14.8499 15.2338L13.9525 12.4716Z" fill="#249F58"></path></g><defs><clipPath id="clip0_2883_1571"><rect width="24" height="24" fill="white" transform="translate(0.5)"></rect></clipPath></defs></svg>