<svg width="25" height="24" viewBox="0 0 25 24" fill="none" xmlns="http://www.w3.org/2000/svg"><g clip-path="url(#clip0_2883_1585)"><path d="M20.9827 20.4824C25.6685 15.7966 25.6685 8.19945 20.9827 3.51365C16.2969 -1.17215 8.69974 -1.17215 4.01393 3.51365C-0.671866 8.19945 -0.671866 15.7966 4.01393 20.4824C8.69974 25.1682 16.2969 25.1682 20.9827 20.4824Z" fill="#F93939"></path><path d="M18.8453 13.0305C19.4142 9.52559 17.0341 6.2231 13.5292 5.65418C10.0243 5.08525 6.72186 7.46533 6.15293 10.9702C5.58401 14.4751 7.96408 17.7776 11.469 18.3465C14.9739 18.9155 18.2764 16.5354 18.8453 13.0305Z" fill="white"></path><path d="M12.4987 7.17578C9.83427 7.17578 7.67615 9.3339 7.67615 11.9983C7.67615 14.6628 9.83427 16.8209 12.4987 16.8209C14.0377 16.8209 15.484 16.0815 16.3888 14.8382C15.6795 15.4924 14.7496 15.8534 13.7846 15.8559C11.654 15.8559 9.92701 14.1289 9.92701 11.9983C9.92701 9.86779 11.654 8.14079 13.7846 8.14079C14.7496 8.14079 15.6795 8.50675 16.3888 9.15845C15.4815 7.91521 14.0377 7.17829 12.4987 7.17578Z" fill="#F93939"></path><path d="M14.8899 11.9983L16.1257 10.2988L14.128 10.948L12.8922 9.24609V11.3491L10.892 11.9983L12.8922 12.65V14.7504L14.128 13.051L16.1257 13.7002L14.8899 11.9983Z" fill="#F93939"></path></g><defs><clipPath id="clip0_2883_1585"><rect width="24" height="24" fill="white" transform="translate(0.5)"></rect></clipPath></defs></svg>